# xmcd
#
# Track frame offsets:
#	187
#	13322
#	26177
#	40490
#	64020
#	78437
#	93275
#	108450
#	122545
#	138065
#	152777
#	166990
#	182132
#	196437
#	210067
#	226332
#	240787
#	252767
#	263522
#	284410
#
# Disc length: 3997 seconds
#
# Revision: 4
# Processed by: cddbd v1.5.2PL0 Copyright (c) Steve Scherf et al.
# Submitted via: EasyCDDAExtractor 16.0.6.1
#
DISCID=030f9b14
DTITLE=Tommy Dorsey - The Legend - Vol. 2
DYEAR=1986
DGENRE=Blues
TTITLE0=You Must Have Been A Beautiful Baby
TTITLE1=Sweet Sue - Just You
TTITLE2=Hawaiian War Chant
TTITLE3=Milenberg Joys
TTITLE4=Tea For Two
TTITLE5=Night in Sudan
TTITLE6=March Of The Toys
TTITLE7=I'll Be Seeing You
TTITLE8=Say It
TTITLE9=This Is The Beginning Of The End
TTITLE10=Devil May Care
TTITLE11=East Of The Sun (And West Of The Moon)
TTITLE12=I'll Never Smile Again
TTITLE13=Whispering
TTITLE14=The One I Love (Belongs To Somebody Else)
TTITLE15=Do You Know Why
TTITLE16=Song Of India
TTITLE17=Marie
TTITLE18=For You
TTITLE19=Whatcha Know Joe
EXTD=
EXTT0=
EXTT1=
EXTT2=
EXTT3=
EXTT4=
EXTT5=
EXTT6=
EXTT7=
EXTT8=
EXTT9=
EXTT10=
EXTT11=
EXTT12=
EXTT13=
EXTT14=
EXTT15=
EXTT16=
EXTT17=
EXTT18=
EXTT19=
PLAYORDER=
